<?xml version="1.0" standalone="no"?>
<!DOCTYPE svg PUBLIC "-//W3C//DTD SVG 20010904//EN"
 "http://www.w3.org/TR/2001/REC-SVG-20010904/DTD/svg10.dtd">
<svg version="1.0" xmlns="http://www.w3.org/2000/svg"
 width="600.000000pt" height="600.000000pt" viewBox="0 0 600.000000 600.000000"
 preserveAspectRatio="xMidYMid meet">
<metadata>
Created by potrace 1.14, written by Peter Selinger 2001-2017
</metadata>
<g transform="translate(0.000000,600.000000) scale(0.100000,-0.100000)"
fill="#000000" stroke="none">
<path d="M1660 1287 c-20 -10 -25 -20 -25 -52 0 -42 4 -45 78 -60 22 -4 28
-10 25 -28 -4 -27 -48 -36 -68 -13 -17 22 -40 20 -40 -3 0 -27 37 -51 78 -51
35 0 82 36 82 63 0 28 -36 60 -76 66 -30 5 -39 11 -39 26 0 24 48 34 70 15 17
-14 36 -5 29 15 -5 13 -54 35 -78 35 -6 0 -22 -6 -36 -13z"/>
<path d="M1897 1294 c-4 -4 -7 -43 -7 -86 0 -70 3 -82 25 -103 39 -40 104 -27
125 25 17 40 9 165 -10 165 -11 0 -16 -13 -18 -45 -4 -77 -12 -109 -30 -119
-34 -18 -47 4 -52 85 -5 71 -15 96 -33 78z"/>
<path d="M2167 1287 c-15 -10 -17 -26 -15 -107 3 -81 6 -95 21 -98 14 -3 17 4
17 38 0 43 2 45 63 55 28 4 40 13 47 31 11 29 -5 71 -29 78 -51 14 -89 15
-104 3z m88 -41 c16 -12 17 -16 6 -30 -7 -9 -26 -16 -42 -16 -24 0 -29 4 -29
23 0 13 3 27 7 30 11 11 38 8 58 -7z"/>
<path d="M2423 1294 c-9 -4 -13 -36 -13 -110 l0 -105 67 3 c81 4 95 23 23 32
-47 6 -50 8 -50 36 0 29 2 30 45 30 33 0 45 4 45 15 0 11 -12 15 -45 15 -41 0
-45 2 -45 25 0 23 4 25 44 25 42 0 66 13 52 27 -8 9 -108 14 -123 7z"/>
<path d="M2663 1293 c-9 -3 -13 -35 -13 -110 0 -94 2 -104 18 -101 12 2 18 15
20 46 4 58 31 57 60 -3 12 -25 29 -45 37 -45 19 0 19 23 -1 61 -14 28 -14 32
0 48 21 23 20 64 -1 83 -18 16 -98 30 -120 21z m87 -48 c17 -20 -3 -45 -36
-45 -20 0 -24 5 -24 30 0 25 4 30 24 30 13 0 29 -7 36 -15z"/>
<path d="M2912 1283 c-4 -10 -7 -58 -7 -108 0 -77 2 -90 18 -93 15 -3 17 5 17
70 l0 73 26 -32 c14 -18 29 -33 34 -33 4 0 17 15 29 33 l21 32 0 -73 c0 -65 2
-73 18 -70 15 3 17 16 17 108 0 122 -11 133 -58 62 l-30 -44 -29 46 c-33 50
-45 56 -56 29z"/>
<path d="M3273 1292 c-12 -8 -83 -177 -83 -199 0 -20 28 -15 40 7 8 15 21 20
55 20 35 0 45 -4 50 -20 6 -20 29 -27 38 -12 6 8 -64 187 -78 201 -6 6 -15 7
-22 3z m15 -130 c-28 -5 -33 4 -18 35 l13 28 12 -30 c12 -27 12 -30 -7 -33z"/>
<path d="M3487 1293 c-4 -3 -7 -53 -7 -110 0 -83 3 -103 14 -103 10 0 16 14
18 43 2 34 7 42 23 42 13 0 28 -15 43 -42 13 -24 30 -43 38 -43 18 0 18 12 -3
54 -15 33 -15 37 0 54 41 45 7 97 -69 106 -28 3 -53 3 -57 -1z m93 -48 c17
-20 -3 -45 -37 -45 -25 0 -39 20 -29 45 3 8 16 15 29 15 14 0 30 -7 37 -15z"/>
<path d="M3735 1278 c-3 -13 -5 -61 -3 -108 3 -71 6 -85 21 -88 14 -3 17 4 17
39 l0 43 45 -44 c34 -33 48 -41 56 -33 9 9 2 24 -29 61 l-41 49 34 33 c61 59
35 85 -29 30 l-35 -31 -3 32 c-4 39 -25 50 -33 17z"/>
<path d="M3991 1286 c-8 -9 -11 -47 -9 -107 l3 -94 64 0 c79 0 94 19 21 29
-47 6 -50 8 -50 36 0 29 1 30 51 30 66 0 62 24 -4 28 -42 3 -47 6 -47 28 0 22
4 24 50 24 36 0 50 4 50 14 0 27 -109 37 -129 12z"/>
<path d="M4237 1293 c-28 -7 -14 -28 21 -31 l32 -3 0 -90 c0 -69 3 -89 14 -89
20 0 26 23 26 106 l0 74 30 0 c32 0 42 23 14 34 -18 7 -109 6 -137 -1z"/>
</g>
</svg>
